<svg width="1200" height="900" viewBox="0 0 1200 900" fill="none" xmlns="http://www.w3.org/2000/svg">
  <defs>
    <linearGradient id="bg" x1="82" y1="72" x2="1118" y2="828" gradientUnits="userSpaceOnUse">
      <stop stop-color="#15100E"/>
      <stop offset="1" stop-color="#060606"/>
    </linearGradient>
    <radialGradient id="glow" cx="0" cy="0" r="1" gradientUnits="userSpaceOnUse" gradientTransform="translate(908 214) rotate(136.169) scale(444.729 533.386)">
      <stop stop-color="#F0C863" stop-opacity="0.26"/>
      <stop offset="1" stop-color="#F0C863" stop-opacity="0"/>
    </radialGradient>
  </defs>
  <rect width="1200" height="900" rx="56" fill="url(#bg)"/>
  <rect x="36" y="36" width="1128" height="828" rx="40" stroke="#FFFFFF" stroke-opacity="0.08"/>
  <circle cx="872" cy="316" r="286" fill="url(#glow)"/>
  <circle cx="820" cy="312" r="210" fill="#121212" stroke="#4B3924" stroke-width="2"/>
  <circle cx="820" cy="312" r="174" fill="#0C0C0C" stroke="#705824" stroke-width="2"/>
  <path d="M712 320C736 242 860 212 930 268C950 352 884 430 782 422C740 400 718 366 712 320Z" fill="#7D261F"/>
  <path d="M742 320C768 274 846 250 900 286C914 340 874 386 814 392C774 388 748 366 742 320Z" fill="#A4332B"/>
  <path d="M780 316C808 296 842 292 868 308" stroke="#E6A27F" stroke-width="8" stroke-linecap="round"/>
  <circle cx="940" cy="374" r="34" fill="#A06B2B"/>
  <circle cx="972" cy="336" r="30" fill="#B87B31"/>
  <circle cx="902" cy="406" r="28" fill="#9C662A"/>
  <path d="M918 230C942 214 964 196 984 174" stroke="#83BA76" stroke-width="16" stroke-linecap="round"/>
  <path d="M684 406C718 394 748 392 780 398" stroke="#83BA76" stroke-width="14" stroke-linecap="round"/>
  <g opacity="0.65" stroke="#F0C863" stroke-width="3">
    <path d="M118 146H320"/>
    <path d="M118 190H262"/>
  </g>
  <text x="118" y="550" fill="#F2EFEA" font-size="78" font-weight="700" font-family="Inter, Arial, sans-serif">Ribeye Steak</text>
  <text x="118" y="628" fill="#D8C8A5" font-size="28" font-weight="500" font-family="Inter, Arial, sans-serif">Premium beef with roasted potatoes and herbs</text>
  <text x="118" y="712" fill="#F0C863" font-size="26" font-weight="700" font-family="Inter, Arial, sans-serif" letter-spacing="6">MAIN COURSE</text>
</svg>
