<svg width="1200" height="900" viewBox="0 0 1200 900" fill="none" xmlns="http://www.w3.org/2000/svg">
  <defs>
    <linearGradient id="bg" x1="76" y1="68" x2="1124" y2="832" gradientUnits="userSpaceOnUse">
      <stop stop-color="#16100A"/>
      <stop offset="1" stop-color="#070707"/>
    </linearGradient>
    <radialGradient id="glow" cx="0" cy="0" r="1" gradientUnits="userSpaceOnUse" gradientTransform="translate(896 214) rotate(131.282) scale(447.12 544.289)">
      <stop stop-color="#F0C863" stop-opacity="0.22"/>
      <stop offset="1" stop-color="#F0C863" stop-opacity="0"/>
    </radialGradient>
  </defs>
  <rect width="1200" height="900" rx="56" fill="url(#bg)"/>
  <rect x="36" y="36" width="1128" height="828" rx="40" stroke="#FFFFFF" stroke-opacity="0.08"/>
  <circle cx="874" cy="314" r="286" fill="url(#glow)"/>
  <path d="M756 182H854C874 182 890 198 890 218V436C890 470 862 498 828 498H782C748 498 720 470 720 436V218C720 198 736 182 756 182Z" fill="#0F0F10" stroke="#6E5724" stroke-width="2"/>
  <path d="M746 230H864V430C864 454 844 474 820 474H790C766 474 746 454 746 430V230Z" fill="#C77726"/>
  <path d="M742 228H868V278C868 292 856 304 842 304H768C754 304 742 292 742 278V228Z" fill="#F1E8D7"/>
  <path d="M890 258H938C958 258 974 274 974 294V352C974 372 958 388 938 388H890" stroke="#A78540" stroke-width="16" stroke-linecap="round"/>
  <path d="M742 258C776 238 804 230 842 230C854 230 864 242 864 254V276C864 292 850 304 834 304H774C756 304 742 290 742 272V258Z" fill="#F6F1E5"/>
  <g opacity="0.65" stroke="#F0C863" stroke-width="3">
    <path d="M118 146H286"/>
    <path d="M118 190H238"/>
  </g>
  <text x="118" y="550" fill="#F2EFEA" font-size="78" font-weight="700" font-family="Inter, Arial, sans-serif">Craft Beer</text>
  <text x="118" y="628" fill="#D8C8A5" font-size="28" font-weight="500" font-family="Inter, Arial, sans-serif">Local Swedish IPA served cold and ready for the table</text>
  <text x="118" y="712" fill="#F0C863" font-size="26" font-weight="700" font-family="Inter, Arial, sans-serif" letter-spacing="6">BEVERAGE</text>
</svg>
