<svg width="1200" height="900" viewBox="0 0 1200 900" fill="none" xmlns="http://www.w3.org/2000/svg">
  <defs>
    <linearGradient id="bg" x1="74" y1="70" x2="1126" y2="830" gradientUnits="userSpaceOnUse">
      <stop stop-color="#180F12"/>
      <stop offset="1" stop-color="#060606"/>
    </linearGradient>
    <radialGradient id="glow" cx="0" cy="0" r="1" gradientUnits="userSpaceOnUse" gradientTransform="translate(900 222) rotate(134.93) scale(447.485 544.835)">
      <stop stop-color="#E9B76A" stop-opacity="0.24"/>
      <stop offset="1" stop-color="#E9B76A" stop-opacity="0"/>
    </radialGradient>
  </defs>
  <rect width="1200" height="900" rx="56" fill="url(#bg)"/>
  <rect x="36" y="36" width="1128" height="828" rx="40" stroke="#FFFFFF" stroke-opacity="0.08"/>
  <circle cx="872" cy="316" r="286" fill="url(#glow)"/>
  <circle cx="818" cy="312" r="206" fill="#111111" stroke="#543C1E" stroke-width="2"/>
  <circle cx="818" cy="312" r="172" fill="#0C0C0C" stroke="#705824" stroke-width="2"/>
  <rect x="738" y="246" width="168" height="140" rx="28" fill="#42261B"/>
  <path d="M776 248H868V314C868 338 848 358 824 358H820C796 358 776 338 776 314V248Z" fill="#613526"/>
  <path d="M796 298C828 288 860 304 876 332C854 372 780 382 758 340C764 320 776 306 796 298Z" fill="#2B1812"/>
  <path d="M842 356C880 338 914 336 940 362" stroke="#F1E3B3" stroke-width="12" stroke-linecap="round"/>
  <circle cx="944" cy="374" r="32" fill="#F3EFE4"/>
  <circle cx="966" cy="394" r="8" fill="#E2D3A5"/>
  <circle cx="718" cy="212" r="12" fill="#E3B370"/>
  <circle cx="740" cy="194" r="8" fill="#E3B370"/>
  <g opacity="0.65" stroke="#F0C863" stroke-width="3">
    <path d="M118 146H320"/>
    <path d="M118 190H262"/>
  </g>
  <text x="118" y="550" fill="#F2EFEA" font-size="78" font-weight="700" font-family="Inter, Arial, sans-serif">Chocolate</text>
  <text x="118" y="622" fill="#F2EFEA" font-size="78" font-weight="700" font-family="Inter, Arial, sans-serif">Fondant</text>
  <text x="118" y="700" fill="#D8C8A5" font-size="28" font-weight="500" font-family="Inter, Arial, sans-serif">Warm cake with a soft center and vanilla ice cream</text>
  <text x="118" y="784" fill="#F0C863" font-size="26" font-weight="700" font-family="Inter, Arial, sans-serif" letter-spacing="6">DESSERT</text>
</svg>
